# xmcd
#
# Track frame offsets: 
#        150
#        17884
#        38883
#        53849
#        68113
#        87108
#        102766
#        120468
#        135760
#        158463
#        173934
#        190968
#        208485
#        224295
#
# Disc length: 3159 seconds
#
# Revision: 2
# Processed by: cddbd v1.5.2PL0 Copyright (c) Steve Scherf et al.
# Submitted via: ExactAudioCopyFreeDBPlugin 1.0
#
DISCID=bb0c550e
DTITLE=Vince Gill - Down To My Last Bad Habit
DYEAR=2016
DGENRE=Country
TTITLE0=Reasons For The Tears I Cry
TTITLE1=Down To My Last Bad Habit
TTITLE2=Me And My Girl
TTITLE3=Like My Daddy Did
TTITLE4=Mak You Feel Real Good
TTITLE5=I Can't Do Ths
TTITLE6=My Favorite Movie
TTITLE7=One More Mistake I Made (Ft. Chris Botti)
TTITLE8=Take Me Down (Ft. Little Big Town)
TTITLE9=I'll Be Waiting For You (Ft. Cam)
TTITLE10=When It's Love
TTITLE11=Sad One Comin' On (A Song For George Jones)
TTITLE12=Rock In My Shoe
TTITLE13=Lonesome Dove In The Moonlight (Ft. Sheryl Crow)
EXTD=YEAR: 2016
EXTT0=
EXTT1=
EXTT2=
EXTT3=
EXTT4=
EXTT5=
EXTT6=
EXTT7=
EXTT8=
EXTT9=
EXTT10=
EXTT11=
EXTT12=
EXTT13=
PLAYORDER=
